<?xml version="1.0" encoding="UTF-8"?>
<svg xmlns="http://www.w3.org/2000/svg" style="display:none">
  <symbol id="ti-activity" viewBox="0 0 24 24"><path stroke="none" d="M0 0h24v24H0z" fill="none" />
  <path d="M3 12h4l3 8l4 -16l3 8h4" /></symbol>
  <symbol id="ti-alert-circle" viewBox="0 0 24 24"><path stroke="none" d="M0 0h24v24H0z" fill="none" />
  <path d="M3 12a9 9 0 1 0 18 0a9 9 0 0 0 -18 0" />
  <path d="M12 8v4" />
  <path d="M12 16h.01" /></symbol>
  <symbol id="ti-alert-triangle" viewBox="0 0 24 24"><path stroke="none" d="M0 0h24v24H0z" fill="none" />
  <path d="M12 9v4" />
  <path d="M10.363 3.591l-8.106 13.534a1.914 1.914 0 0 0 1.636 2.871h16.214a1.914 1.914 0 0 0 1.636 -2.87l-8.106 -13.536a1.914 1.914 0 0 0 -3.274 0" />
  <path d="M12 16h.01" /></symbol>
  <symbol id="ti-arrow-left" viewBox="0 0 24 24"><path stroke="none" d="M0 0h24v24H0z" fill="none" />
  <path d="M5 12l14 0" />
  <path d="M5 12l6 6" />
  <path d="M5 12l6 -6" /></symbol>
  <symbol id="ti-arrow-right" viewBox="0 0 24 24"><path stroke="none" d="M0 0h24v24H0z" fill="none" />
  <path d="M5 12l14 0" />
  <path d="M13 18l6 -6" />
  <path d="M13 6l6 6" /></symbol>
  <symbol id="ti-book" viewBox="0 0 24 24"><path stroke="none" d="M0 0h24v24H0z" fill="none" />
  <path d="M3 19a9 9 0 0 1 9 0a9 9 0 0 1 9 0" />
  <path d="M3 6a9 9 0 0 1 9 0a9 9 0 0 1 9 0" />
  <path d="M3 6l0 13" />
  <path d="M12 6l0 13" />
  <path d="M21 6l0 13" /></symbol>
  <symbol id="ti-building" viewBox="0 0 24 24"><path stroke="none" d="M0 0h24v24H0z" fill="none" />
  <path d="M3 21l18 0" />
  <path d="M9 8l1 0" />
  <path d="M9 12l1 0" />
  <path d="M9 16l1 0" />
  <path d="M14 8l1 0" />
  <path d="M14 12l1 0" />
  <path d="M14 16l1 0" />
  <path d="M5 21v-16a2 2 0 0 1 2 -2h10a2 2 0 0 1 2 2v16" /></symbol>
  <symbol id="ti-building-bank" viewBox="0 0 24 24"><path stroke="none" d="M0 0h24v24H0z" fill="none" />
  <path d="M3 21l18 0" />
  <path d="M3 10l18 0" />
  <path d="M5 6l7 -3l7 3" />
  <path d="M4 10l0 11" />
  <path d="M20 10l0 11" />
  <path d="M8 14l0 3" />
  <path d="M12 14l0 3" />
  <path d="M16 14l0 3" /></symbol>
  <symbol id="ti-building-skyscraper" viewBox="0 0 24 24"><path stroke="none" d="M0 0h24v24H0z" fill="none" />
  <path d="M3 21l18 0" />
  <path d="M5 21v-14l8 -4v18" />
  <path d="M19 21v-10l-6 -4" />
  <path d="M9 9l0 .01" />
  <path d="M9 12l0 .01" />
  <path d="M9 15l0 .01" />
  <path d="M9 18l0 .01" /></symbol>
  <symbol id="ti-building-store" viewBox="0 0 24 24"><path stroke="none" d="M0 0h24v24H0z" fill="none" />
  <path d="M3 21l18 0" />
  <path d="M3 7v1a3 3 0 0 0 6 0v-1m0 1a3 3 0 0 0 6 0v-1m0 1a3 3 0 0 0 6 0v-1h-18l2 -4h14l2 4" />
  <path d="M5 21l0 -10.15" />
  <path d="M19 21l0 -10.15" />
  <path d="M9 21v-4a2 2 0 0 1 2 -2h2a2 2 0 0 1 2 2v4" /></symbol>
  <symbol id="ti-calendar" viewBox="0 0 24 24"><path stroke="none" d="M0 0h24v24H0z" fill="none" />
  <path d="M4 7a2 2 0 0 1 2 -2h12a2 2 0 0 1 2 2v12a2 2 0 0 1 -2 2h-12a2 2 0 0 1 -2 -2v-12" />
  <path d="M16 3v4" />
  <path d="M8 3v4" />
  <path d="M4 11h16" />
  <path d="M11 15h1" />
  <path d="M12 15v3" /></symbol>
  <symbol id="ti-cash" viewBox="0 0 24 24"><path stroke="none" d="M0 0h24v24H0z" fill="none" />
  <path d="M7 15h-3a1 1 0 0 1 -1 -1v-8a1 1 0 0 1 1 -1h12a1 1 0 0 1 1 1v3" />
  <path d="M7 10a1 1 0 0 1 1 -1h12a1 1 0 0 1 1 1v8a1 1 0 0 1 -1 1h-12a1 1 0 0 1 -1 -1l0 -8" />
  <path d="M12 14a2 2 0 1 0 4 0a2 2 0 0 0 -4 0" /></symbol>
  <symbol id="ti-check" viewBox="0 0 24 24"><path stroke="none" d="M0 0h24v24H0z" fill="none" />
  <path d="M5 12l5 5l10 -10" /></symbol>
  <symbol id="ti-chevron-down" viewBox="0 0 24 24"><path stroke="none" d="M0 0h24v24H0z" fill="none" />
  <path d="M6 9l6 6l6 -6" /></symbol>
  <symbol id="ti-chevron-left" viewBox="0 0 24 24"><path stroke="none" d="M0 0h24v24H0z" fill="none" />
  <path d="M15 6l-6 6l6 6" /></symbol>
  <symbol id="ti-chevron-right" viewBox="0 0 24 24"><path stroke="none" d="M0 0h24v24H0z" fill="none" />
  <path d="M9 6l6 6l-6 6" /></symbol>
  <symbol id="ti-chevron-up" viewBox="0 0 24 24"><path stroke="none" d="M0 0h24v24H0z" fill="none" />
  <path d="M6 15l6 -6l6 6" /></symbol>
  <symbol id="ti-circle-check" viewBox="0 0 24 24"><path stroke="none" d="M0 0h24v24H0z" fill="none" />
  <path d="M3 12a9 9 0 1 0 18 0a9 9 0 1 0 -18 0" />
  <path d="M9 12l2 2l4 -4" /></symbol>
  <symbol id="ti-circle-plus" viewBox="0 0 24 24"><path stroke="none" d="M0 0h24v24H0z" fill="none" />
  <path d="M3 12a9 9 0 1 0 18 0a9 9 0 0 0 -18 0" />
  <path d="M9 12h6" />
  <path d="M12 9v6" /></symbol>
  <symbol id="ti-clock" viewBox="0 0 24 24"><path stroke="none" d="M0 0h24v24H0z" fill="none" />
  <path d="M3 12a9 9 0 1 0 18 0a9 9 0 0 0 -18 0" />
  <path d="M12 7v5l3 3" /></symbol>
  <symbol id="ti-coin" viewBox="0 0 24 24"><path stroke="none" d="M0 0h24v24H0z" fill="none" />
  <path d="M3 12a9 9 0 1 0 18 0a9 9 0 1 0 -18 0" />
  <path d="M14.8 9a2 2 0 0 0 -1.8 -1h-2a2 2 0 1 0 0 4h2a2 2 0 1 1 0 4h-2a2 2 0 0 1 -1.8 -1" />
  <path d="M12 7v10" /></symbol>
  <symbol id="ti-dashboard" viewBox="0 0 24 24"><path stroke="none" d="M0 0h24v24H0z" fill="none" />
  <path d="M10 13a2 2 0 1 0 4 0a2 2 0 1 0 -4 0" />
  <path d="M13.45 11.55l2.05 -2.05" />
  <path d="M6.4 20a9 9 0 1 1 11.2 0l-11.2 0" /></symbol>
  <symbol id="ti-database" viewBox="0 0 24 24"><path stroke="none" d="M0 0h24v24H0z" fill="none" />
  <path d="M4 6a8 3 0 1 0 16 0a8 3 0 1 0 -16 0" />
  <path d="M4 6v6a8 3 0 0 0 16 0v-6" />
  <path d="M4 12v6a8 3 0 0 0 16 0v-6" /></symbol>
  <symbol id="ti-device-desktop" viewBox="0 0 24 24"><path stroke="none" d="M0 0h24v24H0z" fill="none" />
  <path d="M3 5a1 1 0 0 1 1 -1h16a1 1 0 0 1 1 1v10a1 1 0 0 1 -1 1h-16a1 1 0 0 1 -1 -1v-10" />
  <path d="M7 20h10" />
  <path d="M9 16v4" />
  <path d="M15 16v4" /></symbol>
  <symbol id="ti-dots" viewBox="0 0 24 24"><path stroke="none" d="M0 0h24v24H0z" fill="none" />
  <path d="M4 12a1 1 0 1 0 2 0a1 1 0 1 0 -2 0" />
  <path d="M11 12a1 1 0 1 0 2 0a1 1 0 1 0 -2 0" />
  <path d="M18 12a1 1 0 1 0 2 0a1 1 0 1 0 -2 0" /></symbol>
  <symbol id="ti-download" viewBox="0 0 24 24"><path stroke="none" d="M0 0h24v24H0z" fill="none" />
  <path d="M4 17v2a2 2 0 0 0 2 2h12a2 2 0 0 0 2 -2v-2" />
  <path d="M7 11l5 5l5 -5" />
  <path d="M12 4l0 12" /></symbol>
  <symbol id="ti-eye" viewBox="0 0 24 24"><path stroke="none" d="M0 0h24v24H0z" fill="none" />
  <path d="M10 12a2 2 0 1 0 4 0a2 2 0 0 0 -4 0" />
  <path d="M21 12c-2.4 4 -5.4 6 -9 6c-3.6 0 -6.6 -2 -9 -6c2.4 -4 5.4 -6 9 -6c3.6 0 6.6 2 9 6" /></symbol>
  <symbol id="ti-file" viewBox="0 0 24 24"><path stroke="none" d="M0 0h24v24H0z" fill="none" />
  <path d="M14 3v4a1 1 0 0 0 1 1h4" />
  <path d="M17 21h-10a2 2 0 0 1 -2 -2v-14a2 2 0 0 1 2 -2h7l5 5v11a2 2 0 0 1 -2 2" /></symbol>
  <symbol id="ti-file-invoice" viewBox="0 0 24 24"><path stroke="none" d="M0 0h24v24H0z" fill="none" />
  <path d="M14 3v4a1 1 0 0 0 1 1h4" />
  <path d="M17 21h-10a2 2 0 0 1 -2 -2v-14a2 2 0 0 1 2 -2h7l5 5v11a2 2 0 0 1 -2 2" />
  <path d="M9 7l1 0" />
  <path d="M9 13l6 0" />
  <path d="M13 17l2 0" /></symbol>
  <symbol id="ti-file-text" viewBox="0 0 24 24"><path stroke="none" d="M0 0h24v24H0z" fill="none" />
  <path d="M14 3v4a1 1 0 0 0 1 1h4" />
  <path d="M17 21h-10a2 2 0 0 1 -2 -2v-14a2 2 0 0 1 2 -2h7l5 5v11a2 2 0 0 1 -2 2" />
  <path d="M9 9l1 0" />
  <path d="M9 13l6 0" />
  <path d="M9 17l6 0" /></symbol>
  <symbol id="ti-filter" viewBox="0 0 24 24"><path stroke="none" d="M0 0h24v24H0z" fill="none" />
  <path d="M4 4h16v2.172a2 2 0 0 1 -.586 1.414l-4.414 4.414v7l-6 2v-8.5l-4.48 -4.928a2 2 0 0 1 -.52 -1.345v-2.227" /></symbol>
  <symbol id="ti-home" viewBox="0 0 24 24"><path stroke="none" d="M0 0h24v24H0z" fill="none" />
  <path d="M5 12l-2 0l9 -9l9 9l-2 0" />
  <path d="M5 12v7a2 2 0 0 0 2 2h10a2 2 0 0 0 2 -2v-7" />
  <path d="M9 21v-6a2 2 0 0 1 2 -2h2a2 2 0 0 1 2 2v6" /></symbol>
  <symbol id="ti-info-circle" viewBox="0 0 24 24"><path stroke="none" d="M0 0h24v24H0z" fill="none" />
  <path d="M3 12a9 9 0 1 0 18 0a9 9 0 0 0 -18 0" />
  <path d="M12 9h.01" />
  <path d="M11 12h1v4h1" /></symbol>
  <symbol id="ti-layout-dashboard" viewBox="0 0 24 24"><path stroke="none" d="M0 0h24v24H0z" fill="none" />
  <path d="M5 4h4a1 1 0 0 1 1 1v6a1 1 0 0 1 -1 1h-4a1 1 0 0 1 -1 -1v-6a1 1 0 0 1 1 -1" />
  <path d="M5 16h4a1 1 0 0 1 1 1v2a1 1 0 0 1 -1 1h-4a1 1 0 0 1 -1 -1v-2a1 1 0 0 1 1 -1" />
  <path d="M15 12h4a1 1 0 0 1 1 1v6a1 1 0 0 1 -1 1h-4a1 1 0 0 1 -1 -1v-6a1 1 0 0 1 1 -1" />
  <path d="M15 4h4a1 1 0 0 1 1 1v2a1 1 0 0 1 -1 1h-4a1 1 0 0 1 -1 -1v-2a1 1 0 0 1 1 -1" /></symbol>
  <symbol id="ti-logout" viewBox="0 0 24 24"><path stroke="none" d="M0 0h24v24H0z" fill="none" />
  <path d="M14 8v-2a2 2 0 0 0 -2 -2h-7a2 2 0 0 0 -2 2v12a2 2 0 0 0 2 2h7a2 2 0 0 0 2 -2v-2" />
  <path d="M9 12h12l-3 -3" />
  <path d="M18 15l3 -3" /></symbol>
  <symbol id="ti-menu-2" viewBox="0 0 24 24"><path stroke="none" d="M0 0h24v24H0z" fill="none" />
  <path d="M4 6l16 0" />
  <path d="M4 12l16 0" />
  <path d="M4 18l16 0" /></symbol>
  <symbol id="ti-moon" viewBox="0 0 24 24"><path stroke="none" d="M0 0h24v24H0z" fill="none" />
  <path d="M12 3c.132 0 .263 0 .393 0a7.5 7.5 0 0 0 7.92 12.446a9 9 0 1 1 -8.313 -12.454l0 .008" /></symbol>
  <symbol id="ti-pencil" viewBox="0 0 24 24"><path stroke="none" d="M0 0h24v24H0z" fill="none" />
  <path d="M4 20h4l10.5 -10.5a2.828 2.828 0 1 0 -4 -4l-10.5 10.5v4" />
  <path d="M13.5 6.5l4 4" /></symbol>
  <symbol id="ti-plus" viewBox="0 0 24 24"><path stroke="none" d="M0 0h24v24H0z" fill="none" />
  <path d="M12 5l0 14" />
  <path d="M5 12l14 0" /></symbol>
  <symbol id="ti-puzzle" viewBox="0 0 24 24"><path stroke="none" d="M0 0h24v24H0z" fill="none" />
  <path d="M4 7h3a1 1 0 0 0 1 -1v-1a2 2 0 0 1 4 0v1a1 1 0 0 0 1 1h3a1 1 0 0 1 1 1v3a1 1 0 0 0 1 1h1a2 2 0 0 1 0 4h-1a1 1 0 0 0 -1 1v3a1 1 0 0 1 -1 1h-3a1 1 0 0 1 -1 -1v-1a2 2 0 0 0 -4 0v1a1 1 0 0 1 -1 1h-3a1 1 0 0 1 -1 -1v-3a1 1 0 0 1 1 -1h1a2 2 0 0 0 0 -4h-1a1 1 0 0 1 -1 -1v-3a1 1 0 0 1 1 -1" /></symbol>
  <symbol id="ti-receipt" viewBox="0 0 24 24"><path stroke="none" d="M0 0h24v24H0z" fill="none" />
  <path d="M5 21v-16a2 2 0 0 1 2 -2h10a2 2 0 0 1 2 2v16l-3 -2l-2 2l-2 -2l-2 2l-2 -2l-3 2m4 -14h6m-6 4h6m-2 4h2" /></symbol>
  <symbol id="ti-refresh" viewBox="0 0 24 24"><path stroke="none" d="M0 0h24v24H0z" fill="none" />
  <path d="M20 11a8.1 8.1 0 0 0 -15.5 -2m-.5 -4v4h4" />
  <path d="M4 13a8.1 8.1 0 0 0 15.5 2m.5 4v-4h-4" /></symbol>
  <symbol id="ti-report" viewBox="0 0 24 24"><path stroke="none" d="M0 0h24v24H0z" fill="none" />
  <path d="M8 5h-2a2 2 0 0 0 -2 2v12a2 2 0 0 0 2 2h5.697" />
  <path d="M18 14v4h4" />
  <path d="M18 11v-4a2 2 0 0 0 -2 -2h-2" />
  <path d="M8 5a2 2 0 0 1 2 -2h2a2 2 0 0 1 2 2a2 2 0 0 1 -2 2h-2a2 2 0 0 1 -2 -2" />
  <path d="M14 18a4 4 0 1 0 8 0a4 4 0 1 0 -8 0" />
  <path d="M8 11h4" />
  <path d="M8 15h3" /></symbol>
  <symbol id="ti-report-analytics" viewBox="0 0 24 24"><path stroke="none" d="M0 0h24v24H0z" fill="none" />
  <path d="M9 5h-2a2 2 0 0 0 -2 2v12a2 2 0 0 0 2 2h10a2 2 0 0 0 2 -2v-12a2 2 0 0 0 -2 -2h-2" />
  <path d="M9 5a2 2 0 0 1 2 -2h2a2 2 0 0 1 2 2a2 2 0 0 1 -2 2h-2a2 2 0 0 1 -2 -2" />
  <path d="M9 17v-5" />
  <path d="M12 17v-1" />
  <path d="M15 17v-3" /></symbol>
  <symbol id="ti-search" viewBox="0 0 24 24"><path stroke="none" d="M0 0h24v24H0z" fill="none" />
  <path d="M3 10a7 7 0 1 0 14 0a7 7 0 1 0 -14 0" />
  <path d="M21 21l-6 -6" /></symbol>
  <symbol id="ti-settings" viewBox="0 0 24 24"><path stroke="none" d="M0 0h24v24H0z" fill="none" />
  <path d="M10.325 4.317c.426 -1.756 2.924 -1.756 3.35 0a1.724 1.724 0 0 0 2.573 1.066c1.543 -.94 3.31 .826 2.37 2.37a1.724 1.724 0 0 0 1.065 2.572c1.756 .426 1.756 2.924 0 3.35a1.724 1.724 0 0 0 -1.066 2.573c.94 1.543 -.826 3.31 -2.37 2.37a1.724 1.724 0 0 0 -2.572 1.065c-.426 1.756 -2.924 1.756 -3.35 0a1.724 1.724 0 0 0 -2.573 -1.066c-1.543 .94 -3.31 -.826 -2.37 -2.37a1.724 1.724 0 0 0 -1.065 -2.572c-1.756 -.426 -1.756 -2.924 0 -3.35a1.724 1.724 0 0 0 1.066 -2.573c-.94 -1.543 .826 -3.31 2.37 -2.37c1 .608 2.296 .07 2.572 -1.065" />
  <path d="M9 12a3 3 0 1 0 6 0a3 3 0 0 0 -6 0" /></symbol>
  <symbol id="ti-shield-lock" viewBox="0 0 24 24"><path stroke="none" d="M0 0h24v24H0z" fill="none" />
  <path d="M12 3a12 12 0 0 0 8.5 3a12 12 0 0 1 -8.5 15a12 12 0 0 1 -8.5 -15a12 12 0 0 0 8.5 -3" />
  <path d="M11 11a1 1 0 1 0 2 0a1 1 0 1 0 -2 0" />
  <path d="M12 12l0 2.5" /></symbol>
  <symbol id="ti-sun" viewBox="0 0 24 24"><path stroke="none" d="M0 0h24v24H0z" fill="none" />
  <path d="M8 12a4 4 0 1 0 8 0a4 4 0 1 0 -8 0" />
  <path d="M3 12h1m8 -9v1m8 8h1m-9 8v1m-6.4 -15.4l.7 .7m12.1 -.7l-.7 .7m0 11.4l.7 .7m-12.1 -.7l-.7 .7" /></symbol>
  <symbol id="ti-tool" viewBox="0 0 24 24"><path stroke="none" d="M0 0h24v24H0z" fill="none" />
  <path d="M7 10h3v-3l-3.5 -3.5a6 6 0 0 1 8 8l6 6a2 2 0 0 1 -3 3l-6 -6a6 6 0 0 1 -8 -8l3.5 3.5" /></symbol>
  <symbol id="ti-trash" viewBox="0 0 24 24"><path stroke="none" d="M0 0h24v24H0z" fill="none" />
  <path d="M4 7l16 0" />
  <path d="M10 11l0 6" />
  <path d="M14 11l0 6" />
  <path d="M5 7l1 12a2 2 0 0 0 2 2h8a2 2 0 0 0 2 -2l1 -12" />
  <path d="M9 7v-3a1 1 0 0 1 1 -1h4a1 1 0 0 1 1 1v3" /></symbol>
  <symbol id="ti-user" viewBox="0 0 24 24"><path stroke="none" d="M0 0h24v24H0z" fill="none" />
  <path d="M8 7a4 4 0 1 0 8 0a4 4 0 0 0 -8 0" />
  <path d="M6 21v-2a4 4 0 0 1 4 -4h4a4 4 0 0 1 4 4v2" /></symbol>
  <symbol id="ti-users" viewBox="0 0 24 24"><path stroke="none" d="M0 0h24v24H0z" fill="none" />
  <path d="M5 7a4 4 0 1 0 8 0a4 4 0 1 0 -8 0" />
  <path d="M3 21v-2a4 4 0 0 1 4 -4h4a4 4 0 0 1 4 4v2" />
  <path d="M16 3.13a4 4 0 0 1 0 7.75" />
  <path d="M21 21v-2a4 4 0 0 0 -3 -3.85" /></symbol>
  <symbol id="ti-wallet" viewBox="0 0 24 24"><path stroke="none" d="M0 0h24v24H0z" fill="none" />
  <path d="M17 8v-3a1 1 0 0 0 -1 -1h-10a2 2 0 0 0 0 4h12a1 1 0 0 1 1 1v3m0 4v3a1 1 0 0 1 -1 1h-12a2 2 0 0 1 -2 -2v-12" />
  <path d="M20 12v4h-4a2 2 0 0 1 0 -4h4" /></symbol>
  <symbol id="ti-world" viewBox="0 0 24 24"><path stroke="none" d="M0 0h24v24H0z" fill="none" />
  <path d="M3 12a9 9 0 1 0 18 0a9 9 0 0 0 -18 0" />
  <path d="M3.6 9h16.8" />
  <path d="M3.6 15h16.8" />
  <path d="M11.5 3a17 17 0 0 0 0 18" />
  <path d="M12.5 3a17 17 0 0 1 0 18" /></symbol>
  <symbol id="ti-x" viewBox="0 0 24 24"><path stroke="none" d="M0 0h24v24H0z" fill="none" />
  <path d="M18 6l-12 12" />
  <path d="M6 6l12 12" /></symbol>
</svg>
